<svg height="512" viewBox="0 0 512 512" width="512" xmlns="http://www.w3.org/2000/svg"><g id="Filled_outline" data-name="Filled outline"><path d="m488 264a56 56 0 0 1 -56-56v-112l-16-16v-24h16a56 56 0 0 1 56 56z" fill="#fcab1e"/><path d="m480 328v128h-240v-128a40 40 0 0 1 40-40h32a16 16 0 0 0 16-16v-56h64v56a16 16 0 0 0 16 16h32a40 40 0 0 1 40 40z" fill="#fdc8a2"/><path d="m392 216v40.51a72.1 72.1 0 0 1 -64 0v-40.51z" fill="#fdb683"/><path d="m440 288h-32l-48 112-48-112h-32a40 40 0 0 0 -40 40v136h56v32h136v-40h48v-128a40 40 0 0 0 -40-40z" fill="#c94732"/><path d="m312 288-32 48 32 8v24l48 32z" fill="#de5540"/><path d="m408 288 32 48-32 8v24l-48 32z" fill="#de5540"/><path d="m320 64h80a32 32 0 0 1 32 32v80a72 72 0 0 1 -72 72 72 72 0 0 1 -72-72v-80a32 32 0 0 1 32-32z" fill="#fdc8a2"/><path d="m324 160a12 12 0 1 1 12-12 12.013 12.013 0 0 1 -12 12z" fill="#844e3a"/><path d="m396 160a12 12 0 1 1 12-12 12.013 12.013 0 0 1 -12 12z" fill="#844e3a"/><path d="m360 208a24.027 24.027 0 0 1 -24-24h16a8 8 0 0 0 16 0h16a24.027 24.027 0 0 1 -24 24z" fill="#fcb079"/><path d="m384 72 48 64h16v-24a88 88 0 0 0 -88-88 88 88 0 0 0 -88 88v24a129.907 129.907 0 0 0 110.16-61.056z" fill="#ffb431"/><path d="m312.447 95.326-14.242-7.291c.821-1.614 20.676-39.536 68.154-41.363l.616 15.989c-37.885 1.457-53.867 31.392-54.528 32.665z" fill="#f9a614"/><g fill="#c13b25"><path d="m304 496h-16v-52.89a65.949 65.949 0 0 1 -6.887-76.677l13.774 8.14a49.864 49.864 0 0 0 6.868 59.87 8 8 0 0 1 2.245 5.557z"/><path d="m440 496h-16v-56a8 8 0 0 1 2.245-5.557 49.864 49.864 0 0 0 6.868-59.87l13.774-8.14a65.949 65.949 0 0 1 -6.887 76.677z"/><path d="m352 400h16v96h-16z"/><path d="m328 416h16v16h-16z"/></g><path d="m299.884 262.86-5.7-3.421a79.042 79.042 0 0 1 -38.184-67.439h16a62.963 62.963 0 0 0 30.416 53.72l5.7 3.42z" fill="#c6c6c4"/><rect fill="#d5d5d3" height="176" rx="24" width="240" x="24" y="256"/><path d="m168 496h-72l24-112h48z" fill="#dfdfdd"/><path d="m160 480h32v16h-32z" fill="#dfdfdd"/><path d="m56 280h32v16h-32z" fill="#c6c6c4"/><path d="m104 280h32v16h-32z" fill="#c6c6c4"/><path d="m152 280h32v16h-32z" fill="#c6c6c4"/><path d="m200 280h32v16h-32z" fill="#c6c6c4"/><path d="m344 448v48h104a32 32 0 0 0 32-32v-16z" fill="#c94732"/><path d="m344 448-25.243-12.622a32.011 32.011 0 0 0 -14.311-3.378h-16.446a32 32 0 0 0 -32 32h32a42.246 42.246 0 0 0 40.985 32h15.015z" fill="#fdc8a2"/><path d="m216 464h88v32h-88z" fill="#dfdfdd"/><path d="m248 136h24a16 16 0 0 1 16 16v24a16 16 0 0 1 -16 16h-24a0 0 0 0 1 0 0v-56a0 0 0 0 1 0 0z" fill="#dfdfdd" transform="matrix(-1 0 0 -1 536 328)"/><path d="m432 136h24a16 16 0 0 1 16 16v24a16 16 0 0 1 -16 16h-24a0 0 0 0 1 0 0v-56a0 0 0 0 1 0 0z" fill="#dfdfdd"/><path d="m48 440h50.867l-10.662 46.2a8 8 0 0 0 7.795 9.8h96v-16h-16v-40h56v8h-16a8 8 0 0 0 -8 8v32a8 8 0 0 0 8 8h88a7.99 7.99 0 0 0 6.6-3.479 49.968 49.968 0 0 0 18.38 3.479h119.02a40.045 40.045 0 0 0 40-40v-40h-16v40a24.027 24.027 0 0 1 -24 24h-96v-32h80a8 8 0 0 0 5.755-2.443 65.91 65.91 0 0 0 9.132-79.128l-13.774 8.142a49.918 49.918 0 0 1 -4.663 57.429h-60.45v-27.719l44.438-29.625a8 8 0 0 0 3.562-6.656v-17.754l25.94-6.485a8 8 0 0 0 4.716-12.2l-23.708-35.561h17.052a32.036 32.036 0 0 1 32 32v72h16v-72a48.055 48.055 0 0 0 -48-48h-32a8.009 8.009 0 0 1 -8-8v-26.763a80.578 80.578 0 0 0 25.52-23.417 64.1 64.1 0 0 0 62.48 50.18 8 8 0 0 0 8-8v-152a64.072 64.072 0 0 0 -64-64h-.512a95.931 95.931 0 0 0 -126.7-14.541l9.212 13.082a80.01 80.01 0 0 1 126 65.459v16h-4l-45.6-60.8a8 8 0 0 0 -13.184.561l-1.84 2.943a122.213 122.213 0 0 1 -44.28 42.014 122.238 122.238 0 0 1 -51.096 15.017v-15.735a79.678 79.678 0 0 1 21.817-54.907l-11.634-10.983a95.615 95.615 0 0 0 -26.183 65.89v16a24.027 24.027 0 0 0 -24 24v24a24.034 24.034 0 0 0 16.3 22.726 79.089 79.089 0 0 0 37.881 60.713l5.7 3.421 8.232-13.72-5.7-3.42a63.019 63.019 0 0 1 -29.891-45.72h11.161a80.368 80.368 0 0 0 36.317 45.237v26.763a8.009 8.009 0 0 1 -8 8h-24v16h9.052l-23.708 35.562a8 8 0 0 0 4.716 12.2l25.94 6.484v17.754a8 8 0 0 0 3.562 6.656l44.438 29.625v27.719h-6.111l-1.889-.944v-15.056h-16v7.056l-5.67-2.835a40.261 40.261 0 0 0 -17.88-4.221h-13.845a50.042 50.042 0 0 1 4.281-41.428l-13.772-8.144a65.813 65.813 0 0 0 -9.114 31.384v-117.812a32.036 32.036 0 0 0 -32-32h-192a32.036 32.036 0 0 0 -32 32v16h16v-16a16.019 16.019 0 0 1 16-16h192a16.019 16.019 0 0 1 16 16v128a16.019 16.019 0 0 1 -16 16h-64v-40a8 8 0 0 0 -8-8h-48a8 8 0 0 0 -7.8 6.2l-9.641 41.8h-54.559a16.019 16.019 0 0 1 -16-16v-96h-16v96a32.036 32.036 0 0 0 32 32zm432-328v40a24.027 24.027 0 0 0 -24-24v-16a95.4 95.4 0 0 0 -12.034-46.49 48.087 48.087 0 0 1 36.034 46.49zm-40 64v-32h16a8.009 8.009 0 0 1 8 8v24a8.009 8.009 0 0 1 -8 8h-16zm0 24h16a24.027 24.027 0 0 0 24-24v79.333a48.078 48.078 0 0 1 -40-47.333zm-160-24v8h-16a8.009 8.009 0 0 1 -8-8v-24a8.009 8.009 0 0 1 8-8h16zm129.536 128.726 17.511 26.266-20.987 5.247a8 8 0 0 0 -6.06 7.761v19.719l-22.045 14.7zm-113.536-128.726v-34.131a137.694 137.694 0 0 0 88.446-55.941l39.554 52.739v37.333a64 64 0 0 1 -128 0zm24 187.719v-19.719a8 8 0 0 0 -6.06-7.761l-20.987-5.247 17.511-26.266 31.581 73.69zm2.987-70.392a24.019 24.019 0 0 0 13.013-21.327v-19.683a80.039 80.039 0 0 0 48 0v19.683a24.019 24.019 0 0 0 13.013 21.327l-37.013 86.363zm-50.987 114.673v-5.753a66.306 66.306 0 0 0 2.564 16.1 39.6 39.6 0 0 0 -5.176 2.3 31.811 31.811 0 0 0 2.612-12.647zm13.894 24.09c.686-.06 18.556-.09 18.556-.09a24.185 24.185 0 0 1 10.732 2.535l20.818 10.409v35.056h-7.02a33.9 33.9 0 0 1 -16.98-4.539v-19.461a8 8 0 0 0 -8-8h-38.606a24.157 24.157 0 0 1 20.5-15.91zm-37.894 6.897a31.709 31.709 0 0 0 4.683-1.614 39.766 39.766 0 0 0 -3.854 10.627h-.829zm8 25.013h40v16h-72v-16zm-129.636-72h33.636v88h-53.943zm209.636-244a12 12 0 1 1 -12-12 12.013 12.013 0 0 1 12 12zm48 0a12 12 0 1 1 12 12 12.013 12.013 0 0 1 -12-12zm-24 60a24.027 24.027 0 0 1 -24-24h16a8 8 0 0 0 16 0h16a24.027 24.027 0 0 1 -24 24zm-47.553-112.674-14.242-7.291c.821-1.614 20.676-39.536 68.154-41.363l.616 15.989c-37.885 1.457-53.867 31.392-54.528 32.665zm-224.447 184.674v16h-32v-16zm48 16h-32v-16h32zm48 0h-32v-16h32zm48-16v16h-32v-16z"/></g></svg>