<?xml version="1.0" standalone="no"?>
<!DOCTYPE svg PUBLIC "-//W3C//DTD SVG 20010904//EN"
 "http://www.w3.org/TR/2001/REC-SVG-20010904/DTD/svg10.dtd">
<svg version="1.0" xmlns="http://www.w3.org/2000/svg"
 width="251.000000pt" height="78.000000pt" viewBox="0 0 251.000000 78.000000"
 preserveAspectRatio="xMidYMid meet">

<g transform="translate(0.000000,78.000000) scale(0.100000,-0.100000)"
fill="#000000" stroke="none">
<path d="M447 656 c-52 -19 -73 -40 -93 -92 -20 -53 -13 -102 23 -144 71 -85
188 -80 255 11 31 41 33 97 6 149 -37 71 -117 103 -191 76z"/>
<path d="M737 325 c53 -47 86 -108 98 -183 l7 -42 698 2 c557 2 702 6 712 16
18 18 18 216 0 234 -10 10 -168 14 -789 16 l-776 2 50 -45z m443 -25 c0 -5
-11 -10 -25 -10 -14 0 -25 5 -25 10 0 6 11 10 25 10 14 0 25 -4 25 -10z m390
-55 l0 -65 -35 0 c-22 0 -38 6 -44 18 -10 16 -10 16 -11 0 0 -10 -7 -18 -15
-18 -11 0 -15 12 -15 50 l0 50 34 0 c38 0 52 -20 36 -50 -7 -13 -6 -21 5 -30
13 -11 15 -6 16 36 1 27 1 55 0 62 -1 6 5 12 14 12 12 0 15 -13 15 -65z m529
0 c1 -53 -1 -65 -14 -65 -12 0 -15 13 -15 65 0 48 4 65 14 65 9 0 14 -18 15
-65z m-733 35 c43 0 74 -4 74 -10 0 -5 -9 -10 -20 -10 -11 0 -20 -4 -20 -10 0
-5 7 -10 15 -10 8 0 15 -4 15 -10 0 -5 -7 -10 -15 -10 -8 0 -15 -4 -15 -10 0
-5 9 -10 20 -10 11 0 20 -4 20 -10 0 -5 -16 -10 -35 -10 -34 0 -35 1 -35 40 0
29 -4 40 -15 40 -11 0 -15 -11 -15 -40 0 -29 -4 -40 -15 -40 -11 0 -15 11 -15
40 0 40 0 40 -37 39 -37 0 -38 0 -15 -16 21 -15 32 -63 13 -63 -5 0 -11 -9
-14 -20 -7 -27 -20 -25 -34 7 -18 37 -16 42 10 36 l22 -6 -22 25 c-13 13 -23
29 -23 34 0 21 26 35 54 30 16 -3 62 -6 102 -6z m-338 -27 l10 -28 11 28 c6
17 18 27 31 27 17 0 20 -6 20 -50 0 -38 -4 -50 -15 -50 -9 0 -15 9 -16 23 l0
22 -9 -22 c-10 -24 -39 -32 -41 -10 0 10 -2 10 -6 0 -2 -7 -11 -13 -19 -13
-10 0 -14 14 -14 50 0 43 3 50 19 50 12 0 23 -10 29 -27z m114 -10 c4 -52 28
-56 28 -4 0 30 4 41 15 41 24 0 21 -86 -4 -100 -27 -14 -37 -13 -55 6 -21 20
-22 94 -2 94 10 0 16 -13 18 -37z m553 7 c0 -16 -8 -28 -22 -35 -13 -5 -23
-15 -23 -22 0 -7 -7 -13 -15 -13 -11 0 -15 12 -15 51 l0 50 38 -3 c32 -3 37
-6 37 -28z m87 -17 l16 -48 1 48 c1 40 4 47 21 47 11 0 26 -12 34 -27 l15 -28
1 28 c0 17 5 27 15 27 11 0 15 -12 15 -50 0 -43 -3 -50 -20 -50 -11 0 -26 12
-34 28 l-15 27 -1 -27 c0 -23 -4 -28 -25 -28 -14 0 -35 6 -46 13 -17 10 -23
10 -26 0 -3 -7 -13 -13 -24 -13 -16 0 -17 4 -9 25 6 14 14 36 20 50 16 42 44
32 62 -22z m198 37 c0 -5 -9 -10 -20 -10 -11 0 -20 -4 -20 -10 0 -5 9 -10 20
-10 11 0 20 -4 20 -10 0 -5 -9 -10 -20 -10 -11 0 -20 -4 -20 -10 0 -5 9 -10
20 -10 11 0 20 -4 20 -10 0 -5 -16 -10 -35 -10 l-35 0 0 50 0 50 35 0 c19 0
35 -4 35 -10z m40 -30 c0 -33 3 -40 20 -40 11 0 20 -4 20 -10 0 -5 -16 -10
-35 -10 l-35 0 0 50 c0 38 4 50 15 50 11 0 15 -11 15 -40z"/>
<path d="M1650 250 c0 -5 5 -10 11 -10 5 0 7 5 4 10 -3 6 -8 10 -11 10 -2 0
-4 -4 -4 -10z"/>
<path d="M308 320 c-48 -42 -81 -105 -93 -177 l-7 -43 292 0 292 0 -7 43 c-12
72 -45 135 -93 177 -25 22 -48 40 -51 40 -4 0 -24 -9 -46 -20 -25 -13 -59 -20
-95 -20 -36 0 -70 7 -95 20 -22 11 -42 20 -46 20 -3 0 -26 -18 -51 -40z"/>
</g>
</svg>
