<?xml version="1.0" standalone="no"?>
<!DOCTYPE svg PUBLIC "-//W3C//DTD SVG 20010904//EN"
 "http://www.w3.org/TR/2001/REC-SVG-20010904/DTD/svg10.dtd">
<svg version="1.0" xmlns="http://www.w3.org/2000/svg"
  viewBox="0 0 64.000000 64.000000"
 preserveAspectRatio="xMidYMid meet">

<g transform="translate(0.000000,64.000000) scale(0.100000,-0.100000)"
fill="#000000" stroke="none">
<path d="M183 618 c-12 -6 -29 -26 -38 -45 -32 -66 13 -133 88 -133 67 0 113
68 87 131 -21 50 -85 72 -137 47z m96 -25 c11 -10 24 -32 27 -50 5 -26 1 -37
-19 -57 -52 -52 -131 -22 -131 49 0 65 73 99 123 58z"/>
<path d="M150 402 c-19 -9 -45 -32 -57 -51 -20 -29 -23 -47 -23 -127 l0 -94
93 0 94 0 24 -37 c39 -60 85 -86 145 -81 190 16 191 284 0 305 -26 3 -46 11
-46 17 0 18 -50 63 -83 75 -42 16 -108 13 -147 -7z m154 -17 c35 -17 77 -75
54 -75 -37 -1 -98 -85 -98 -135 0 -25 -1 -25 -85 -25 l-85 0 0 83 c0 91 10
115 64 148 38 23 106 25 150 4z m177 -100 c43 -23 69 -71 69 -129 0 -43 -4
-53 -39 -87 -34 -35 -44 -39 -87 -39 -91 0 -153 66 -141 151 12 94 114 147
198 104z"/>
<path d="M382 254 c-12 -8 -22 -24 -22 -35 0 -11 -7 -27 -15 -35 -20 -21 -20
-98 1 -118 18 -18 104 -22 135 -6 15 9 19 22 19 66 0 39 -4 56 -15 60 -8 4
-15 16 -15 29 0 24 -28 55 -51 55 -8 0 -25 -7 -37 -16z m52 -10 c9 -3 16 -17
16 -30 0 -21 -5 -24 -35 -24 -27 0 -35 4 -35 18 0 18 18 42 31 42 4 0 14 -3
23 -6z m41 -119 l0 -50 -60 0 -60 0 -3 39 c-5 62 0 67 65 64 l58 -3 0 -50z"/>
<path d="M400 128 c0 -7 4 -19 9 -27 7 -11 11 -10 20 6 5 11 7 23 4 27 -11 11
-33 7 -33 -6z"/>
</g>
</svg>
